<svg width="431" height="90" viewBox="0 0 431 90" fill="none" xmlns="http://www.w3.org/2000/svg">
<path fill-rule="evenodd" clip-rule="evenodd" d="M214.283 0.328491V67.328L204.553 69.6181V0.328491H214.283ZM225.29 0.624599V7.6126L234.627 9.90269V0.624599H225.29ZM234.922 69.5194V20.8587H224.995V67.4077L234.922 69.5194ZM285.831 20.4639L262.834 71.3948L241.31 20.4639H252.023L259.59 39.711L262.834 48.7917L266.372 39.9085L274.627 20.4639H285.831ZM315.316 70.4077C325.34 70.4077 334.972 64.6829 339.689 53.1347H329.272C326.716 58.2672 321.409 61.2283 315.316 61.2283C307.355 61.2283 301.065 55.3061 299.787 47.706H340.279C340.307 47.4791 340.328 47.2277 340.342 46.9636L340.345 46.9L340.35 46.8038L340.353 46.7391L340.354 46.7066L340.356 46.6414L340.358 46.6086L340.36 46.543L340.361 46.51L340.363 46.444L340.365 46.3778L340.366 46.3113L340.368 46.2448L340.369 46.1782L340.37 46.1115L340.372 46.0114L340.373 45.9115L340.374 45.8449L340.375 45.7453L340.376 45.6131L340.377 45.5147L340.377 45.3844L340.377 45.2877L340.377 45.1288L340.377 44.9423C340.377 30.9265 329.173 19.3782 315.316 19.3782C301.36 19.3782 290.156 30.9265 290.156 44.9423C290.156 58.8595 301.36 70.4077 315.316 70.4077ZM300.082 40.3033H330.648C330.526 39.9781 330.371 39.653 330.211 39.3278L330.165 39.2349L330.095 39.0956L330.026 38.9563C329.857 38.6156 329.694 38.275 329.566 37.9344C327.011 32.5057 321.704 28.4589 315.316 28.4589C308.633 28.4589 303.227 32.7031 300.77 38.4279L300.75 38.4754L300.719 38.5461L300.679 38.6393L300.55 38.9347L300.511 39.0235L300.492 39.0676L300.464 39.1333L300.445 39.1769L300.427 39.2203L300.409 39.2635L300.4 39.285L300.383 39.3279L300.365 39.3706L300.348 39.4132L300.331 39.4557C300.218 39.7451 300.128 40.0242 300.082 40.3033ZM358.756 67.328V39.8097C360.513 28.1466 374.286 29.0379 374.383 29.051V20.0691C364.766 20.0691 362.955 21.4053 359.343 24.3316L358.995 24.6136L358.756 24.8069V20.2665H348.436V69.6181L358.756 67.328ZM430.894 20.4639L399.876 90L390.206 87.5963L397.675 71.4935L399.641 66.9531L397.774 62.7089L380.673 20.4639H390.206L402.393 51.4567L404.457 57.1815L406.914 51.5554L420.968 20.4639H430.894ZM128.771 44.6155C128.771 29.356 117.584 19.5112 103.771 19.5112C97.0595 19.5112 92.1958 20.5942 87.4294 24.0398V20.2004H77.4102V90L87.4294 87.7158V64.3051L87.5528 64.4457C91.651 69.0502 98.3786 70.015 103.771 70.015C119.141 70.015 128.771 58.5951 128.771 44.6155ZM87.5268 44.6155C87.5268 35.5583 94.8224 28.47 103.772 28.47C112.429 28.47 119.238 35.5583 119.238 44.6155C119.238 53.5742 112.429 60.564 103.772 60.564C94.8224 60.564 87.5268 53.5742 87.5268 44.6155ZM192.342 44.6155C192.342 29.356 181.156 19.5112 167.343 19.5112C160.631 19.5112 155.767 20.5942 151.001 24.0398V20.2004H140.982V87.9274L151.001 90V64.3051L151.124 64.4457C155.222 69.0502 161.95 70.015 167.343 70.015C182.712 70.015 192.342 58.5951 192.342 44.6155ZM151.098 44.6155C151.098 35.5583 158.394 28.47 167.343 28.47C176 28.47 182.809 35.5583 182.809 44.6155C182.809 53.5742 176 60.564 167.343 60.564C158.394 60.564 151.098 53.5742 151.098 44.6155Z" fill="white"></path>
<path fill-rule="evenodd" clip-rule="evenodd" d="M35.0058 0.0114453L41.2711 12.4173L41.2652 12.4288L70 69.3269L55.6954 65.814L35 24.8347L14.3046 65.814L0 69.3269L28.7348 12.4288L28.7289 12.4173L34.9942 0.0114453L35 0L35.0058 0.0114453Z" fill="white"></path>
<path fill-rule="evenodd" clip-rule="evenodd" d="M35.0195 39.0227L44.7702 58.2628L34.9893 55.9137L25.2085 58.2628L35.0165 39.0227L35.018 39.0197L35.0195 39.0227Z" fill="white"></path>
</svg>